# xmcd
#
# Track frame offsets:
#	150
#	11302
#	28019
#	42738
#	55567
#	71453
#	87033
#	97580
#	111463
#	122139
#
# Disc length: 1810 seconds
#
# Revision: 0
# Processed by: cddbd v1.5.2PL0 Copyright (c) Steve Scherf et al.
# Submitted via: EasyCDDAExtractor 10.2.0.1
#
DISCID=7507100a
DTITLE=Chris Smith - Thank You For The Sacrifice
DYEAR=2003
DGENRE=Gospel
TTITLE0=I'll Meet You On The Other Side
TTITLE1=Born To Die
TTITLE2=Never See  The Sea
TTITLE3=God's Got A Guardian Angel
TTITLE4=The Church Of The Frigid-Air
TTITLE5=Thank You For The Sacrifice
TTITLE6=I Am Bound To Travel On
TTITLE7=Maybe Lord The Next Time
TTITLE8=Whosoever Will
TTITLE9=He Is Still The RocK Of Ages
EXTD=
EXTT0=
EXTT1=
EXTT2=
EXTT3=
EXTT4=
EXTT5=
EXTT6=
EXTT7=
EXTT8=
EXTT9=
PLAYORDER=
